<svg xmlns="http://www.w3.org/2000/svg" xmlns:xlink="http://www.w3.org/1999/xlink" width="1920" height="1080" viewBox="0 0 1920 1080">
  <defs>
    <clipPath id="clip-path">
      <rect id="Rectangle_19" data-name="Rectangle 19" width="1920" height="1080" fill="#fff"/>
    </clipPath>
    <linearGradient id="linear-gradient" y1="0.5" x2="1" y2="0.5" gradientUnits="objectBoundingBox">
      <stop offset="0" stop-color="#a9a9a9"/>
      <stop offset="0.817" stop-color="gray"/>
      <stop offset="1" stop-color="#555"/>
    </linearGradient>
    <clipPath id="clip-landing_page_zoning">
      <rect width="1920" height="1080"/>
    </clipPath>
  </defs>
  <g id="landing_page_zoning" data-name="landing page zoning" clip-path="url(#clip-landing_page_zoning)">
    <rect width="1920" height="1080" fill="#fff"/>
    <g id="Group_10" data-name="Group 10" transform="translate(-4)">
      <g id="Group_9" data-name="Group 9" transform="translate(4)" clip-path="url(#clip-path)">
        <rect id="Rectangle_16" data-name="Rectangle 16" width="1920" height="1080" fill="url(#linear-gradient)"/>
        <path id="Path_1" data-name="Path 1" d="M217.156,77.4V47.576a1,1,0,0,1,1.05-.923,4.051,4.051,0,0,1,3.407,1.736l8.281,12.228a.853.853,0,0,1-.387,1.262,1.175,1.175,0,0,1-1.47-.333L219.741,49.3a2,2,0,0,0-.436-.446V76.125a1.957,1.957,0,0,0,.423-.427L227.7,64.116a2.752,2.752,0,0,1,2.253-1.559,2.679,2.679,0,0,1,2.142,1.1.9.9,0,0,1,.121.234,2.553,2.553,0,0,0,2.429,2.049,2.6,2.6,0,0,0,2.822-2.346,2.562,2.562,0,0,0-2.729-2.345.934.934,0,1,1,0-1.848c2.69,0,4.879,1.88,4.879,4.193s-2.189,4.191-4.879,4.191a4.655,4.655,0,0,1-4.538-3.232.834.834,0,0,0-.154-.127,1.847,1.847,0,0,0-.461.576l-7.99,11.61a4.044,4.044,0,0,1-3.39,1.712A1.006,1.006,0,0,1,217.156,77.4Z" transform="translate(53.518 4.656)" fill="#170055"/>
        <path id="Path_2" data-name="Path 2" d="M136.965,54.655c-3.073-1.572-4.3-2.152-4.3-3.055,0-.5.427-.839,1.25-.839,2.5,0,5.973,2.044,8.8,5.313h.15V49.834h-.126l-1.6.86a8.762,8.762,0,0,0-4.072-.9c-3.474,0-6.3,1.1-6.349,4.154-.048,2.345,1.726,3.442,3.823,4.518l2.9,1.528c2.373,1.2,4.423,2.023,4.423,2.991,0,.409-.325.839-1.449.839a12.819,12.819,0,0,1-10.1-6.434l-.176.022.425,6.627c2.25.279,4.3.989,6.723.989,4.323,0,6.472-2.281,6.472-4.582,0-1.83-1.375-2.992-3.8-4.218Z" transform="translate(30.039 4.969)" fill="#170055"/>
        <path id="Path_3" data-name="Path 3" d="M154.834,56.783c0-2.065-1.025-3.765-3.823-3.765-.75,0-1.949,1.011-3.5,2.776V48.07h-.15L141.537,49.6v.129l1.576.473V63.8l-1.15.839v.129h6.723v-.129L147.51,63.8V56.44a1.93,1.93,0,0,1,1.524-.8,1.232,1.232,0,0,1,1.375,1.4V63.8l-1.175.839v.129h6.723v-.129l-1.148-.839Z" transform="translate(33.113 4.797)" fill="#170055"/>
        <path id="Path_4" data-name="Path 4" d="M159.8,64.64c.9,0,6.446-.989,6.446-6.2,0-3.228-2.523-5.875-6.5-5.875-.875,0-6.423.99-6.423,6.262C153.326,61.973,155.825,64.64,159.8,64.64Zm2.223-1.053c-1.3.345-2.7-1.14-4.1-4.648-1.375-3.529-1.225-5.057-.325-5.336,1.224-.324,2.549,1.14,3.973,4.647C162.972,61.757,162.847,63.285,162.023,63.587Z" transform="translate(36.294 5.246)" fill="#170055"/>
        <path id="Path_5" data-name="Path 5" d="M172.97,52.714c-.324-.043-1.723,1.161-3.274,2.669h-.024c.1-2.174-.775-2.754-1.925-2.754-1.549,0-2.625,1.57-4.149,3.421l.1.108,1.874-.818V68.723l-1.175.839v.129h6.747v-.129l-1.175-.839V64.441a8.057,8.057,0,0,0,1.276.087c1.474,0,6.422-.969,6.422-6.434C177.669,55.231,176.294,53.059,172.97,52.714Zm-1.4,11.253c-.674,0-1.374-.494-1.573-1.979V55.6a2.308,2.308,0,0,1,1.274-.451c1.525,0,2.024,2.065,2.024,5.207C173.3,63.3,172.521,63.967,171.571,63.967Z" transform="translate(39.066 5.252)" fill="#170055"/>
        <path id="Path_6" data-name="Path 6" d="M184.424,50.174c2.875,2.561,5.15,6.391,5.15,10.071v1.269h-.152l-8.146-11.469h-5.948v.108l1.7,2.281V64.57h5.8v-.129c-3.073-2.6-5.223-5.767-5.223-9.876V53.144h.126L185.9,64.613h4.223V50.046h-5.7Z" transform="translate(42.231 4.994)" fill="#170055"/>
        <path id="Path_7" data-name="Path 7" d="M195.007,64.64c.9,0,6.447-.989,6.447-6.2,0-3.228-2.523-5.875-6.5-5.875-.876,0-6.424.99-6.424,6.262C188.533,61.973,191.032,64.64,195.007,64.64Zm2.225-1.053c-1.3.345-2.7-1.14-4.1-4.648-1.374-3.529-1.224-5.057-.325-5.336,1.225-.324,2.55,1.14,3.973,4.647C198.18,61.757,198.054,63.285,197.231,63.587Z" transform="translate(45.795 5.246)" fill="#170055"/>
        <path id="Path_8" data-name="Path 8" d="M212.741,52.973a5.926,5.926,0,0,1,1.524,6.154l-.3.8h-.149l-2.8-6.069,1.148-.881v-.13h-6.621v.13c2.123,1.591,2.5,3.786,1.874,6.154l-.3.8h-.15l-3.175-6.069,1.15-.881v-.13h-6.1v.13l6.348,11.64h.276l2.9-6.476h.175l3.1,6.476h.273l6.124-11.64v-.13h-5.3Z" transform="translate(48.577 5.274)" fill="#170055"/>
        <path id="Path_9" data-name="Path 9" d="M1414.213,86.094h-7.924a1.066,1.066,0,0,1-1.13-.979V81.85a1.066,1.066,0,0,1,1.13-.979h7.924a2.83,2.83,0,0,0,3.01-2.612V62.586a2.83,2.83,0,0,0-3.01-2.612h-7.924a1.066,1.066,0,0,1-1.13-.979V55.729a1.066,1.066,0,0,1,1.13-.979h7.924c4.991,0,9.041,3.51,9.041,7.836V78.258C1423.254,82.584,1419.2,86.094,1414.213,86.094Zm-4.432-16.407-15.835-13.713c-1.422-1.224-3.86-.367-3.86,1.388V65.2H1377.26a2.118,2.118,0,0,0-2.26,1.959v7.836a2.118,2.118,0,0,0,2.26,1.959h12.825v7.836c0,1.755,2.438,2.612,3.86,1.388l15.835-13.713A1.794,1.794,0,0,0,1409.781,69.687Z" transform="translate(365.952 5.464)" fill="#7900ff"/>
        <rect id="Rectangle_18" data-name="Rectangle 18" width="320" height="96.782" rx="44" transform="translate(148.571 795.153)" fill="#969696"/>
        <g id="pic">
          <rect id="Rectangle_27" data-name="Rectangle 27" width="866" height="742" transform="translate(899 212)" fill="#c1c1c1"/>
          <line id="Line_1" data-name="Line 1" x1="866" y2="742" transform="translate(899 212)" fill="none" stroke="#707070" stroke-width="5"/>
          <line id="Line_2" data-name="Line 2" x2="866" y2="742" transform="translate(899.5 212.5)" fill="none" stroke="#707070" stroke-width="5"/>
        </g>
        <rect id="Rectangle_28" data-name="Rectangle 28" width="504" height="228" rx="24" transform="translate(117 328)" fill="#cccaca"/>
        <line id="Line_3" data-name="Line 3" x2="504" transform="translate(117.5 361.5)" fill="none" stroke="#707070" stroke-width="3"/>
        <line id="Line_4" data-name="Line 4" x2="504" transform="translate(117.5 414.5)" fill="none" stroke="#707070" stroke-width="3"/>
        <line id="Line_5" data-name="Line 5" x2="504" transform="translate(117.5 467.5)" fill="none" stroke="#707070" stroke-width="3"/>
        <line id="Line_6" data-name="Line 6" x2="504" transform="translate(117.5 520.5)" fill="none" stroke="#707070" stroke-width="3"/>
      </g>
      <rect id="Rectangle_20" data-name="Rectangle 20" width="1919" height="1079" transform="translate(4.5 0.5)" fill="none" stroke="#000" stroke-width="1"/>
    </g>
  </g>
</svg>
