<svg xmlns="http://www.w3.org/2000/svg" xmlns:xlink="http://www.w3.org/1999/xlink" width="1920" height="1080" viewBox="0 0 1920 1080">
  <defs>
    <clipPath id="clip-path">
      <rect id="Rectangle_19" data-name="Rectangle 19" width="1920" height="1080" fill="#fff"/>
    </clipPath>
    <linearGradient id="linear-gradient" y1="0.5" x2="1" y2="0.5" gradientUnits="objectBoundingBox">
      <stop offset="0" stop-color="#a9a9a9"/>
      <stop offset="0.817" stop-color="gray"/>
      <stop offset="1" stop-color="#555"/>
    </linearGradient>
    <clipPath id="clip-landing_page_wirefram">
      <rect width="1920" height="1080"/>
    </clipPath>
  </defs>
  <g id="landing_page_wirefram" data-name="landing page wirefram" clip-path="url(#clip-landing_page_wirefram)">
    <rect width="1920" height="1080" fill="#fff"/>
    <g id="Group_10" data-name="Group 10" transform="translate(-4)">
      <g id="Group_9" data-name="Group 9" transform="translate(4)" clip-path="url(#clip-path)">
        <rect id="Rectangle_16" data-name="Rectangle 16" width="1920" height="1080" fill="url(#linear-gradient)"/>
        <path id="Path_1" data-name="Path 1" d="M217.156,77.4V47.576a1,1,0,0,1,1.05-.923,4.051,4.051,0,0,1,3.407,1.736l8.281,12.228a.853.853,0,0,1-.387,1.262,1.175,1.175,0,0,1-1.47-.333L219.741,49.3a2,2,0,0,0-.436-.446V76.125a1.957,1.957,0,0,0,.423-.427L227.7,64.116a2.752,2.752,0,0,1,2.253-1.559,2.679,2.679,0,0,1,2.142,1.1.9.9,0,0,1,.121.234,2.553,2.553,0,0,0,2.429,2.049,2.6,2.6,0,0,0,2.822-2.346,2.562,2.562,0,0,0-2.729-2.345.934.934,0,1,1,0-1.848c2.69,0,4.879,1.88,4.879,4.193s-2.189,4.191-4.879,4.191a4.655,4.655,0,0,1-4.538-3.232.834.834,0,0,0-.154-.127,1.847,1.847,0,0,0-.461.576l-7.99,11.61a4.044,4.044,0,0,1-3.39,1.712A1.006,1.006,0,0,1,217.156,77.4Z" transform="translate(53.518 4.656)" fill="#170055"/>
        <path id="Path_2" data-name="Path 2" d="M136.965,54.655c-3.073-1.572-4.3-2.152-4.3-3.055,0-.5.427-.839,1.25-.839,2.5,0,5.973,2.044,8.8,5.313h.15V49.834h-.126l-1.6.86a8.762,8.762,0,0,0-4.072-.9c-3.474,0-6.3,1.1-6.349,4.154-.048,2.345,1.726,3.442,3.823,4.518l2.9,1.528c2.373,1.2,4.423,2.023,4.423,2.991,0,.409-.325.839-1.449.839a12.819,12.819,0,0,1-10.1-6.434l-.176.022.425,6.627c2.25.279,4.3.989,6.723.989,4.323,0,6.472-2.281,6.472-4.582,0-1.83-1.375-2.992-3.8-4.218Z" transform="translate(30.039 4.969)" fill="#170055"/>
        <path id="Path_3" data-name="Path 3" d="M154.834,56.783c0-2.065-1.025-3.765-3.823-3.765-.75,0-1.949,1.011-3.5,2.776V48.07h-.15L141.537,49.6v.129l1.576.473V63.8l-1.15.839v.129h6.723v-.129L147.51,63.8V56.44a1.93,1.93,0,0,1,1.524-.8,1.232,1.232,0,0,1,1.375,1.4V63.8l-1.175.839v.129h6.723v-.129l-1.148-.839Z" transform="translate(33.113 4.797)" fill="#170055"/>
        <path id="Path_4" data-name="Path 4" d="M159.8,64.64c.9,0,6.446-.989,6.446-6.2,0-3.228-2.523-5.875-6.5-5.875-.875,0-6.423.99-6.423,6.262C153.326,61.973,155.825,64.64,159.8,64.64Zm2.223-1.053c-1.3.345-2.7-1.14-4.1-4.648-1.375-3.529-1.225-5.057-.325-5.336,1.224-.324,2.549,1.14,3.973,4.647C162.972,61.757,162.847,63.285,162.023,63.587Z" transform="translate(36.294 5.246)" fill="#170055"/>
        <path id="Path_5" data-name="Path 5" d="M172.97,52.714c-.324-.043-1.723,1.161-3.274,2.669h-.024c.1-2.174-.775-2.754-1.925-2.754-1.549,0-2.625,1.57-4.149,3.421l.1.108,1.874-.818V68.723l-1.175.839v.129h6.747v-.129l-1.175-.839V64.441a8.057,8.057,0,0,0,1.276.087c1.474,0,6.422-.969,6.422-6.434C177.669,55.231,176.294,53.059,172.97,52.714Zm-1.4,11.253c-.674,0-1.374-.494-1.573-1.979V55.6a2.308,2.308,0,0,1,1.274-.451c1.525,0,2.024,2.065,2.024,5.207C173.3,63.3,172.521,63.967,171.571,63.967Z" transform="translate(39.066 5.252)" fill="#170055"/>
        <path id="Path_6" data-name="Path 6" d="M184.424,50.174c2.875,2.561,5.15,6.391,5.15,10.071v1.269h-.152l-8.146-11.469h-5.948v.108l1.7,2.281V64.57h5.8v-.129c-3.073-2.6-5.223-5.767-5.223-9.876V53.144h.126L185.9,64.613h4.223V50.046h-5.7Z" transform="translate(42.231 4.994)" fill="#170055"/>
        <path id="Path_7" data-name="Path 7" d="M195.007,64.64c.9,0,6.447-.989,6.447-6.2,0-3.228-2.523-5.875-6.5-5.875-.876,0-6.424.99-6.424,6.262C188.533,61.973,191.032,64.64,195.007,64.64Zm2.225-1.053c-1.3.345-2.7-1.14-4.1-4.648-1.374-3.529-1.224-5.057-.325-5.336,1.225-.324,2.55,1.14,3.973,4.647C198.18,61.757,198.054,63.285,197.231,63.587Z" transform="translate(45.795 5.246)" fill="#170055"/>
        <path id="Path_8" data-name="Path 8" d="M212.741,52.973a5.926,5.926,0,0,1,1.524,6.154l-.3.8h-.149l-2.8-6.069,1.148-.881v-.13h-6.621v.13c2.123,1.591,2.5,3.786,1.874,6.154l-.3.8h-.15l-3.175-6.069,1.15-.881v-.13h-6.1v.13l6.348,11.64h.276l2.9-6.476h.175l3.1,6.476h.273l6.124-11.64v-.13h-5.3Z" transform="translate(48.577 5.274)" fill="#170055"/>
        <path id="Path_9" data-name="Path 9" d="M1414.213,86.094h-7.924a1.066,1.066,0,0,1-1.13-.979V81.85a1.066,1.066,0,0,1,1.13-.979h7.924a2.83,2.83,0,0,0,3.01-2.612V62.586a2.83,2.83,0,0,0-3.01-2.612h-7.924a1.066,1.066,0,0,1-1.13-.979V55.729a1.066,1.066,0,0,1,1.13-.979h7.924c4.991,0,9.041,3.51,9.041,7.836V78.258C1423.254,82.584,1419.2,86.094,1414.213,86.094Zm-4.432-16.407-15.835-13.713c-1.422-1.224-3.86-.367-3.86,1.388V65.2H1377.26a2.118,2.118,0,0,0-2.26,1.959v7.836a2.118,2.118,0,0,0,2.26,1.959h12.825v7.836c0,1.755,2.438,2.612,3.86,1.388l15.835-13.713A1.794,1.794,0,0,0,1409.781,69.687Z" transform="translate(365.952 5.464)" fill="#7900ff"/>
        <path id="Path_10" data-name="Path 10" d="M140.072,252.88V299.2H127.044V252.88Zm35.346,9.106q7.467,0,11.886,4.223,4.5,4.157,4.5,11.482V299.2H178.847V279.209a7.435,7.435,0,0,0-2.21-5.741,9.655,9.655,0,0,0-11.886,0,7.435,7.435,0,0,0-2.21,5.741V299.2H149.514V262.382h13.029v4.883a13.19,13.19,0,0,1,5.333-3.827A18.8,18.8,0,0,1,175.418,261.986Zm44.559,26.659,9.219-26.263h13.867L227.977,299.2H211.9l-15.086-36.821h13.943Zm68.646-8.446a25,25,0,0,1-.229,3.3H258.909a7.4,7.4,0,0,0,2.514,5.279,8.772,8.772,0,0,0,5.562,1.782q4.876,0,6.781-3.563h13.867a15.619,15.619,0,0,1-3.886,6.533,18.882,18.882,0,0,1-6.933,4.553,25.393,25.393,0,0,1-9.371,1.65,25.688,25.688,0,0,1-11.124-2.31,17.916,17.916,0,0,1-7.619-6.6,18.211,18.211,0,0,1-2.743-10.03,18.6,18.6,0,0,1,2.667-10.03,17.916,17.916,0,0,1,7.619-6.6,28.13,28.13,0,0,1,22.171-.066,17.223,17.223,0,0,1,10.21,16.1Zm-13.333-2.969A5.478,5.478,0,0,0,273,272.61a10.288,10.288,0,0,0-11.276-.066,7.127,7.127,0,0,0-2.743,4.685Zm46.11-15.243q7.467,0,11.886,4.223,4.5,4.157,4.5,11.482V299.2H324.829V279.209a7.435,7.435,0,0,0-2.21-5.741,9.655,9.655,0,0,0-11.886,0,7.435,7.435,0,0,0-2.21,5.741V299.2H295.5V262.382h13.029v4.883a13.189,13.189,0,0,1,5.333-3.827A18.8,18.8,0,0,1,321.4,261.986Zm49.13,27.649V299.2H363.9q-7.086,0-11.048-2.969-3.962-3.035-3.962-9.832V271.753h-5.181v-9.37h5.181v-8.974h13.029v8.974h8.533v9.37h-8.533v14.781a2.855,2.855,0,0,0,.914,2.376,4.964,4.964,0,0,0,3.048.726Zm26.61,10.1a26.709,26.709,0,0,1-11.276-2.31,18.866,18.866,0,0,1-7.848-6.6,17.844,17.844,0,0,1-2.819-10.03,17.384,17.384,0,0,1,2.9-9.964,18.6,18.6,0,0,1,7.924-6.665,28.682,28.682,0,0,1,22.552,0,18.6,18.6,0,0,1,7.924,6.665,18.5,18.5,0,0,1-.076,19.994,18.691,18.691,0,0,1-8,6.6A26.709,26.709,0,0,1,397.14,299.731Zm0-9.766a9.016,9.016,0,0,0,6.324-2.376,8.626,8.626,0,0,0,2.667-6.8,9.049,9.049,0,0,0-15.162-6.8q-2.514,2.31-2.514,6.8,0,4.421,2.438,6.8A8.746,8.746,0,0,0,397.14,289.965Zm42.188-21.446a16.038,16.038,0,0,1,5.714-4.751,16.273,16.273,0,0,1,7.619-1.782V273.93h-3.581q-4.876,0-7.314,1.848-2.438,1.782-2.438,6.335V299.2H426.3V262.382h13.029Zm62.989-6.137L475.651,316.69H461.632l9.752-18.741-17.3-35.567h14.552l9.829,23.03,9.752-23.03Zm-314.7,89.479v46.323H174.587V370.4l-11.962,27.781H152.111l-12.038-27.847v27.847H127.044V351.862h15.39l15.01,32.07,14.857-32.07Zm6.778,27.847a19.815,19.815,0,0,1,2.438-9.964,17.279,17.279,0,0,1,6.781-6.6,19.679,19.679,0,0,1,9.524-2.31,18.2,18.2,0,0,1,7.848,1.584,12.891,12.891,0,0,1,5.257,4.157v-5.213H239.27v36.821H226.241v-5.213a13.5,13.5,0,0,1-5.333,4.157,18.2,18.2,0,0,1-7.848,1.584,19.523,19.523,0,0,1-9.448-2.31,17.754,17.754,0,0,1-6.781-6.665A20.185,20.185,0,0,1,194.394,379.708Zm31.848.066a8.468,8.468,0,0,0-2.743-6.665,9.345,9.345,0,0,0-6.552-2.442,9.622,9.622,0,0,0-6.629,2.442,8.38,8.38,0,0,0-2.667,6.6,8.8,8.8,0,0,0,2.667,6.731,9.622,9.622,0,0,0,6.629,2.442,9.345,9.345,0,0,0,6.552-2.442A8.468,8.468,0,0,0,226.241,379.774ZM274.6,360.968q7.467,0,11.886,4.223,4.5,4.157,4.5,11.482v21.512H278.029V378.191a7.435,7.435,0,0,0-2.21-5.741,9.655,9.655,0,0,0-11.886,0,7.435,7.435,0,0,0-2.21,5.741v19.994H248.7V361.364h13.029v4.883a13.189,13.189,0,0,1,5.333-3.827A18.8,18.8,0,0,1,274.6,360.968Zm22.843,18.741a19.815,19.815,0,0,1,2.438-9.964,17.279,17.279,0,0,1,6.781-6.6,19.679,19.679,0,0,1,9.524-2.31,18.2,18.2,0,0,1,7.848,1.584,12.89,12.89,0,0,1,5.257,4.157v-5.213H342.32v36.821H329.291v-5.213a13.5,13.5,0,0,1-5.333,4.157,18.2,18.2,0,0,1-7.848,1.584,19.523,19.523,0,0,1-9.448-2.31,17.754,17.754,0,0,1-6.781-6.665A20.185,20.185,0,0,1,297.444,379.708Zm31.848.066a8.468,8.468,0,0,0-2.743-6.665A9.345,9.345,0,0,0,320,370.668a9.622,9.622,0,0,0-6.629,2.442,8.38,8.38,0,0,0-2.667,6.6,8.8,8.8,0,0,0,2.667,6.731A9.622,9.622,0,0,0,320,388.881a9.345,9.345,0,0,0,6.552-2.442A8.468,8.468,0,0,0,329.291,379.774ZM367.9,360.836a18.2,18.2,0,0,1,7.848,1.584A12.891,12.891,0,0,1,381,366.577v-5.213h13.029v36.755a18.011,18.011,0,0,1-2.362,9.172,16.141,16.141,0,0,1-7.086,6.6,25.561,25.561,0,0,1-11.81,2.442q-9.448,0-15.314-3.893a14.124,14.124,0,0,1-6.7-10.426h12.876a5.378,5.378,0,0,0,2.9,3.3,11.594,11.594,0,0,0,5.638,1.254,9.442,9.442,0,0,0,6.4-2.046q2.438-1.98,2.438-6.4v-5.213a14.157,14.157,0,0,1-5.257,4.223,18.2,18.2,0,0,1-7.848,1.584,19.68,19.68,0,0,1-9.524-2.31,17.754,17.754,0,0,1-6.781-6.665,20.185,20.185,0,0,1-2.438-10.03,19.815,19.815,0,0,1,2.438-9.964,17.279,17.279,0,0,1,6.781-6.6A19.679,19.679,0,0,1,367.9,360.836ZM381,379.774a8.468,8.468,0,0,0-2.743-6.665,9.345,9.345,0,0,0-6.552-2.442,9.622,9.622,0,0,0-6.629,2.442,8.381,8.381,0,0,0-2.667,6.6,8.8,8.8,0,0,0,2.667,6.731,9.622,9.622,0,0,0,6.629,2.442,9.345,9.345,0,0,0,6.552-2.442A8.468,8.468,0,0,0,381,379.774Zm62.531-.594a25,25,0,0,1-.229,3.3H413.82a7.4,7.4,0,0,0,2.514,5.279,8.772,8.772,0,0,0,5.562,1.782q4.876,0,6.781-3.563h13.867a15.618,15.618,0,0,1-3.886,6.533,18.882,18.882,0,0,1-6.933,4.553,25.394,25.394,0,0,1-9.371,1.65,25.688,25.688,0,0,1-11.124-2.31,17.916,17.916,0,0,1-7.619-6.6,18.211,18.211,0,0,1-2.743-10.03,18.6,18.6,0,0,1,2.667-10.03,17.915,17.915,0,0,1,7.619-6.6,28.13,28.13,0,0,1,22.171-.066,17.223,17.223,0,0,1,10.21,16.1ZM430.2,376.211a5.478,5.478,0,0,0-2.286-4.619,10.288,10.288,0,0,0-11.276-.066,7.127,7.127,0,0,0-2.743,4.685Zm74.453-15.243q7.924,0,12.571,4.157,4.724,4.157,4.724,11.548v21.512H509V378.191a6.853,6.853,0,0,0-2.21-5.477,8.4,8.4,0,0,0-5.943-1.98,8.691,8.691,0,0,0-6.019,1.98,6.976,6.976,0,0,0-2.133,5.477v19.994H479.74V378.191a6.853,6.853,0,0,0-2.21-5.477,8.4,8.4,0,0,0-5.943-1.98,8.691,8.691,0,0,0-6.019,1.98,6.976,6.976,0,0,0-2.133,5.477v19.994H450.406V361.364h13.029v4.619a13.423,13.423,0,0,1,5.181-3.629,18.046,18.046,0,0,1,7.238-1.386,19.582,19.582,0,0,1,8.533,1.782,13.9,13.9,0,0,1,5.943,5.081,16.344,16.344,0,0,1,6.019-4.949A18.238,18.238,0,0,1,504.654,360.968Zm66.484,18.213a25.006,25.006,0,0,1-.229,3.3H541.424a7.4,7.4,0,0,0,2.514,5.279,8.772,8.772,0,0,0,5.562,1.782q4.876,0,6.781-3.563h13.867a15.619,15.619,0,0,1-3.886,6.533,18.882,18.882,0,0,1-6.933,4.553,25.394,25.394,0,0,1-9.371,1.65,25.688,25.688,0,0,1-11.124-2.31,17.916,17.916,0,0,1-7.619-6.6,18.211,18.211,0,0,1-2.743-10.03,18.6,18.6,0,0,1,2.667-10.03,17.915,17.915,0,0,1,7.619-6.6,28.13,28.13,0,0,1,22.171-.066,17.223,17.223,0,0,1,10.21,16.1ZM557.8,376.211a5.478,5.478,0,0,0-2.286-4.619,10.288,10.288,0,0,0-11.276-.066,7.127,7.127,0,0,0-2.743,4.685Zm46.112-15.243q7.467,0,11.886,4.223,4.5,4.157,4.5,11.482v21.512H607.345V378.191a7.435,7.435,0,0,0-2.21-5.741,9.655,9.655,0,0,0-11.886,0,7.435,7.435,0,0,0-2.209,5.741v19.994H578.011V361.364H591.04v4.883a13.189,13.189,0,0,1,5.333-3.827A18.8,18.8,0,0,1,603.916,360.968Zm49.129,27.649v9.568h-6.629q-7.086,0-11.048-2.969-3.962-3.035-3.962-9.832V370.734h-5.181v-9.37h5.181V352.39h13.029v8.974h8.533v9.37h-8.533v14.781a2.855,2.855,0,0,0,.914,2.376,4.964,4.964,0,0,0,3.048.726ZM146.4,497.629a31.307,31.307,0,0,1-10.514-1.65,17.376,17.376,0,0,1-7.467-4.883,12.3,12.3,0,0,1-2.9-7.787h13.867a5.652,5.652,0,0,0,2.057,3.959,7.4,7.4,0,0,0,4.571,1.32,8.127,8.127,0,0,0,4.571-1.122,3.758,3.758,0,0,0,1.676-3.233,3.512,3.512,0,0,0-1.371-2.837,10.432,10.432,0,0,0-3.276-1.848,54.828,54.828,0,0,0-5.486-1.65,66.147,66.147,0,0,1-8.457-2.772,15.316,15.316,0,0,1-5.638-4.091,10.348,10.348,0,0,1-2.362-7.061,11.5,11.5,0,0,1,5.41-10.1q5.41-3.7,14.1-3.7,8.838,0,14.248,3.7a12.506,12.506,0,0,1,5.79,10.162h-14.1a4.455,4.455,0,0,0-1.9-3.5,7.269,7.269,0,0,0-4.5-1.32,6.048,6.048,0,0,0-3.81,1.122,3.6,3.6,0,0,0-1.448,3.1,3.848,3.848,0,0,0,2.438,3.5,43.587,43.587,0,0,0,7.619,2.706,74.291,74.291,0,0,1,8.381,2.9,15.658,15.658,0,0,1,5.638,4.025,9.808,9.808,0,0,1,2.362,6.8,11.908,11.908,0,0,1-2.362,7.193,15.48,15.48,0,0,1-6.7,5.147A26.124,26.124,0,0,1,146.4,497.629Zm70.951-37.283-26.667,54.308H176.662l9.752-18.741-17.3-35.567h14.552l9.829,23.03,9.752-23.03Zm22.006,37.349a27.754,27.754,0,0,1-9.9-1.65,17.032,17.032,0,0,1-6.857-4.487,11.152,11.152,0,0,1-2.819-6.467h12.876a4.2,4.2,0,0,0,2.057,3.1,8.081,8.081,0,0,0,4.5,1.188,7.216,7.216,0,0,0,3.733-.792,2.521,2.521,0,0,0,1.371-2.178,2.461,2.461,0,0,0-1.9-2.31,39.336,39.336,0,0,0-6.171-1.716,70.341,70.341,0,0,1-7.619-1.914,13.831,13.831,0,0,1-5.257-3.233,8.186,8.186,0,0,1-2.21-6,9.182,9.182,0,0,1,1.981-5.741,13.569,13.569,0,0,1,5.943-4.157,26.169,26.169,0,0,1,9.371-1.518q8,0,12.571,3.431a12.8,12.8,0,0,1,5.333,9.106H244.306a4.351,4.351,0,0,0-1.981-3.035,7.3,7.3,0,0,0-4.267-1.122,6.444,6.444,0,0,0-3.5.792,2.266,2.266,0,0,0-1.219,2.046,2.57,2.57,0,0,0,1.9,2.376,36.044,36.044,0,0,0,6.1,1.584,67.948,67.948,0,0,1,7.7,2.112,12.58,12.58,0,0,1,5.181,3.3,8.366,8.366,0,0,1,2.362,6.071,8.859,8.859,0,0,1-2.133,5.807,13.632,13.632,0,0,1-6.019,3.959A25.854,25.854,0,0,1,239.354,497.695Zm48.885-10.1v9.568H281.61q-7.086,0-11.048-2.969-3.962-3.035-3.962-9.832V469.716H261.42v-9.37H266.6v-8.974h13.029v8.974h8.533v9.37h-8.533V484.5a2.855,2.855,0,0,0,.914,2.376,4.964,4.964,0,0,0,3.048.726Zm47.333-9.436a25,25,0,0,1-.229,3.3H305.858a7.4,7.4,0,0,0,2.514,5.279,8.772,8.772,0,0,0,5.562,1.782q4.876,0,6.781-3.563h13.867a15.619,15.619,0,0,1-3.886,6.533,18.882,18.882,0,0,1-6.933,4.553,25.392,25.392,0,0,1-9.371,1.65,25.688,25.688,0,0,1-11.124-2.31,17.916,17.916,0,0,1-7.619-6.6,18.211,18.211,0,0,1-2.743-10.03,18.6,18.6,0,0,1,2.667-10.03,17.915,17.915,0,0,1,7.619-6.6,28.13,28.13,0,0,1,22.171-.066,17.223,17.223,0,0,1,10.21,16.1Zm-13.333-2.969a5.478,5.478,0,0,0-2.286-4.619,10.288,10.288,0,0,0-11.276-.066,7.127,7.127,0,0,0-2.743,4.685Zm74.455-15.243q7.924,0,12.571,4.157,4.724,4.157,4.724,11.548v21.512H401.036V477.172a6.853,6.853,0,0,0-2.21-5.477,8.4,8.4,0,0,0-5.943-1.98,8.691,8.691,0,0,0-6.019,1.98,6.976,6.976,0,0,0-2.133,5.477v19.994H371.779V477.172a6.853,6.853,0,0,0-2.21-5.477,8.4,8.4,0,0,0-5.943-1.98,8.691,8.691,0,0,0-6.019,1.98,6.976,6.976,0,0,0-2.133,5.477v19.994H342.446V460.346h13.029v4.619a13.422,13.422,0,0,1,5.181-3.629,18.045,18.045,0,0,1,7.238-1.386,19.582,19.582,0,0,1,8.533,1.782,13.9,13.9,0,0,1,5.943,5.081,16.344,16.344,0,0,1,6.019-4.949A18.238,18.238,0,0,1,396.693,459.95Z" transform="translate(28.791 25.237)" fill="#383838"/>
        <rect id="Rectangle_18" data-name="Rectangle 18" width="320" height="96.782" rx="44" transform="translate(148.571 795.153)" fill="#969696"/>
        <path id="Path_12" data-name="Path 12" d="M183.242,781.536a13.718,13.718,0,0,1-4.8-.792,7.919,7.919,0,0,1-3.352-2.31,5.3,5.3,0,0,1-1.219-3.464h4.648a3.493,3.493,0,0,0,1.333,2.442,5.366,5.366,0,0,0,3.391.957,5.822,5.822,0,0,0,3.5-.924A2.943,2.943,0,0,0,188,775a2.422,2.422,0,0,0-.8-1.881A5.134,5.134,0,0,0,185.261,772a31.15,31.15,0,0,0-3.2-.858,37.09,37.09,0,0,1-4.229-1.188,7.068,7.068,0,0,1-2.743-1.914,4.977,4.977,0,0,1-1.143-3.431,5.519,5.519,0,0,1,1.143-3.464,7.17,7.17,0,0,1,3.2-2.277,13.207,13.207,0,0,1,4.762-.792,10.836,10.836,0,0,1,6.286,1.683,5.88,5.88,0,0,1,2.743,4.553h-4.8a2.933,2.933,0,0,0-1.371-2.145,5.615,5.615,0,0,0-3.314-.891,5.208,5.208,0,0,0-3.048.825,2.72,2.72,0,0,0-1.181,2.376,2.318,2.318,0,0,0,.724,1.749,5.746,5.746,0,0,0,1.9,1.056q1.143.4,3.124.858a35.031,35.031,0,0,1,4.267,1.254,6.829,6.829,0,0,1,2.819,1.947,4.925,4.925,0,0,1,1.181,3.464,5.587,5.587,0,0,1-1.1,3.3,7.49,7.49,0,0,1-3.162,2.508A11.828,11.828,0,0,1,183.242,781.536Zm16.476-20.819a2.919,2.919,0,0,1-1.981-.693,2.24,2.24,0,0,1,0-3.431,2.919,2.919,0,0,1,1.981-.693,2.865,2.865,0,0,1,1.943.693,2.24,2.24,0,0,1,0,3.431A2.866,2.866,0,0,1,199.719,760.717Zm2.133,2.409v18.18h-4.343v-18.18Zm14.159-.3a10.209,10.209,0,0,1,4.3.858,7.979,7.979,0,0,1,2.971,2.079v-2.64h4.381V781.6a8.092,8.092,0,0,1-4.762,7.556,12.343,12.343,0,0,1-5.486,1.122,13.224,13.224,0,0,1-7.086-1.749,6.252,6.252,0,0,1-3.2-4.685h4.3a4.151,4.151,0,0,0,2.1,2.277,8.017,8.017,0,0,0,3.886.891,6.231,6.231,0,0,0,4.229-1.386,4.977,4.977,0,0,0,1.638-4.025v-3.035a8.808,8.808,0,0,1-3.01,2.178,10.111,10.111,0,0,1-4.267.858,10.741,10.741,0,0,1-5.029-1.188,9.063,9.063,0,0,1-4.876-8.281,8.768,8.768,0,0,1,4.876-8.116A10.739,10.739,0,0,1,216.011,762.829Zm7.276,9.37a5.906,5.906,0,0,0-3.238-5.378,7.084,7.084,0,0,0-6.248,0,5.637,5.637,0,0,0-3.238,5.312,5.929,5.929,0,0,0,3.238,5.477,7.028,7.028,0,0,0,3.124.726,6.872,6.872,0,0,0,3.124-.726,5.758,5.758,0,0,0,2.324-2.112A5.956,5.956,0,0,0,223.287,772.2Zm20.677-9.37a10.489,10.489,0,0,1,4.419.891,6.9,6.9,0,0,1,3.086,2.639,7.747,7.747,0,0,1,1.1,4.223v10.723h-4.3V771.143a4.794,4.794,0,0,0-1.41-3.728,5.405,5.405,0,0,0-3.848-1.32,5.546,5.546,0,0,0-3.886,1.32,4.794,4.794,0,0,0-1.41,3.728v10.162h-4.343v-18.18h4.343V765.2a7.229,7.229,0,0,1,2.7-1.749A10.029,10.029,0,0,1,243.964,762.829Zm28.387-4.454v22.931h-4.343V758.375Zm16.292,4.454a10.489,10.489,0,0,1,4.419.891,6.9,6.9,0,0,1,3.086,2.639,7.747,7.747,0,0,1,1.1,4.223v10.723h-4.3V771.143a4.794,4.794,0,0,0-1.41-3.728,5.405,5.405,0,0,0-3.848-1.32,5.546,5.546,0,0,0-3.886,1.32,4.794,4.794,0,0,0-1.41,3.728v10.162h-4.343v-18.18H282.4V765.2a7.229,7.229,0,0,1,2.7-1.749A10.03,10.03,0,0,1,288.643,762.829Zm25.881-2.864h6.034L330.2,768.2l-9.638,8.239h-6.034l9.68-8.239Zm24.717,0h6.034l9.638,8.239-9.638,8.239h-6.034l9.68-8.239Z" transform="translate(41.838 75.436)" fill="#292929"/>
        <g id="pic">
          <rect id="Rectangle_27" data-name="Rectangle 27" width="866" height="742" transform="translate(899 212)" fill="#c1c1c1"/>
          <line id="Line_1" data-name="Line 1" x1="866" y2="742" transform="translate(899 212)" fill="none" stroke="#707070" stroke-width="5"/>
          <line id="Line_2" data-name="Line 2" x2="866" y2="742" transform="translate(899.5 212.5)" fill="none" stroke="#707070" stroke-width="5"/>
        </g>
      </g>
      <rect id="Rectangle_20" data-name="Rectangle 20" width="1919" height="1079" transform="translate(4.5 0.5)" fill="none" stroke="#000" stroke-width="1"/>
    </g>
  </g>
</svg>
