<svg xmlns="http://www.w3.org/2000/svg" xmlns:xlink="http://www.w3.org/1999/xlink" width="1920" height="97" viewBox="0 0 1920 97">
  <defs>
    <clipPath id="clip-nav_bar">
      <rect width="1920" height="97"/>
    </clipPath>
  </defs>
  <g id="nav_bar" data-name="nav bar" clip-path="url(#clip-nav_bar)">
    <rect width="1920" height="97" fill="#fff"/>
    <g id="nav_bar-2" data-name="nav bar">
      <rect id="Rectangle_21" data-name="Rectangle 21" width="1920" height="97" fill="#548cff"/>
      <path id="Path_13" data-name="Path 13" d="M213.156,53.611V26.492a.843.843,0,0,1,.827-.839,3.108,3.108,0,0,1,2.683,1.578l6.521,11.118a.833.833,0,0,1-.3,1.148.849.849,0,0,1-1.158-.3l-6.532-11.135a1.742,1.742,0,0,0-.343-.405v24.8a1.7,1.7,0,0,0,.333-.389l6.279-10.531a2.189,2.189,0,0,1,1.774-1.418,2.07,2.07,0,0,1,1.687,1,.866.866,0,0,1,.1.213c.555,1.959,1.9,1.865,1.913,1.864A2.134,2.134,0,1,0,227,38.926a.84.84,0,1,1,0-1.68,3.812,3.812,0,1,1,0,7.623,3.7,3.7,0,0,1-3.574-2.938.688.688,0,0,0-.121-.116,1.646,1.646,0,0,0-.363.523L216.653,52.9a3.1,3.1,0,0,1-2.67,1.556A.845.845,0,0,1,213.156,53.611Z" fill="#170055"/>
      <path id="Path_14" data-name="Path 14" d="M131.515,33.213c-2.42-1.429-3.385-1.956-3.385-2.778,0-.451.336-.763.984-.763,1.968,0,4.7,1.858,6.928,4.831h.118V28.83h-.1l-1.259.782a6.154,6.154,0,0,0-3.207-.822c-2.736,0-4.96,1-5,3.777-.038,2.132,1.359,3.129,3.011,4.108l2.284,1.39c1.869,1.1,3.483,1.839,3.483,2.719,0,.372-.256.763-1.141.763-1.5,0-5.57-1.154-7.95-5.85l-.139.02.335,6.026c1.772.253,3.385.9,5.294.9,3.4,0,5.1-2.074,5.1-4.166,0-1.663-1.083-2.721-2.991-3.835Z" fill="#170055"/>
      <path id="Path_15" data-name="Path 15" d="M148.008,34.993c0-1.877-.807-3.424-3.011-3.424-.591,0-1.535.92-2.756,2.524V27.07h-.118l-4.586,1.388v.117l1.241.431V41.371l-.906.763v.117h5.294v-.117l-.925-.763V34.681a1.473,1.473,0,0,1,1.2-.725c.591,0,1.083.294,1.083,1.272v6.143l-.925.763v.117h5.294v-.117l-.9-.763Z" fill="#170055"/>
      <path id="Path_16" data-name="Path 16" d="M154.424,42.545a5.529,5.529,0,0,0,5.076-5.634,5.056,5.056,0,0,0-5.116-5.342,5.551,5.551,0,0,0-5.058,5.694A5.034,5.034,0,0,0,154.424,42.545Zm1.751-.958c-1.023.313-2.125-1.037-3.227-4.226-1.083-3.208-.965-4.6-.256-4.852.964-.294,2.007,1.037,3.129,4.225C156.922,39.923,156.824,41.313,156.175,41.587Z" fill="#170055"/>
      <path id="Path_17" data-name="Path 17" d="M166.979,31.706c-.255-.039-1.357,1.056-2.578,2.427h-.019c.078-1.977-.61-2.5-1.516-2.5-1.22,0-2.067,1.428-3.267,3.111l.079.1,1.476-.744V46.263l-.925.763v.117h5.313v-.117l-.925-.763V42.369a5.511,5.511,0,0,0,1,.079c1.161,0,5.057-.881,5.057-5.85C170.679,34,169.6,32.02,166.979,31.706Zm-1.1,10.232c-.531,0-1.082-.45-1.239-1.8V34.328a1.667,1.667,0,0,1,1-.41c1.2,0,1.594,1.878,1.594,4.735C167.235,41.332,166.625,41.938,165.877,41.938Z" fill="#170055"/>
      <path id="Path_18" data-name="Path 18" d="M178.491,29.163a13.935,13.935,0,0,1,4.056,9.157v1.154h-.12l-6.415-10.428h-4.684v.1l1.339,2.074V42.252h4.565v-.117a12.256,12.256,0,0,1-4.113-8.98V31.863h.1l6.436,10.428h3.326V29.046h-4.489Z" fill="#170055"/>
      <path id="Path_19" data-name="Path 19" d="M189.631,42.545a5.529,5.529,0,0,0,5.077-5.634,5.056,5.056,0,0,0-5.116-5.342,5.551,5.551,0,0,0-5.059,5.694A5.034,5.034,0,0,0,189.631,42.545Zm1.752-.958c-1.024.313-2.126-1.037-3.228-4.226-1.082-3.208-.964-4.6-.256-4.852.965-.294,2.008,1.037,3.129,4.225C192.13,39.923,192.031,41.313,191.383,41.587Z" fill="#170055"/>
      <path id="Path_20" data-name="Path 20" d="M205.788,31.961a6,6,0,0,1,1.2,5.6l-.236.723h-.117l-2.2-5.518.9-.8v-.119h-5.214v.119c1.672,1.447,1.968,3.443,1.476,5.6l-.237.723h-.118l-2.5-5.518.906-.8v-.119h-4.8v.119l5,10.583h.217l2.282-5.888h.138l2.441,5.888h.215l4.823-10.583v-.119h-4.173Z" fill="#170055"/>
      <path id="Path_21" data-name="Path 21" d="M1401.88,62.25h-6.24a.893.893,0,0,1-.89-.891V58.391a.893.893,0,0,1,.89-.891h6.24a2.371,2.371,0,0,0,2.37-2.375V40.875a2.371,2.371,0,0,0-2.37-2.375h-6.24a.893.893,0,0,1-.89-.891V34.641a.893.893,0,0,1,.89-.891h6.24a7.125,7.125,0,0,1,7.12,7.125v14.25A7.125,7.125,0,0,1,1401.88,62.25Zm-3.49-14.918-12.47-12.469a1.782,1.782,0,0,0-3.04,1.262V43.25h-10.1a1.774,1.774,0,0,0-1.78,1.781v7.125a1.774,1.774,0,0,0,1.78,1.781h10.1v7.125a1.782,1.782,0,0,0,3.04,1.262l12.47-12.469A1.8,1.8,0,0,0,1398.39,47.332Z" transform="translate(408)" fill="#7900ff"/>
    </g>
  </g>
</svg>
