<svg xmlns="http://www.w3.org/2000/svg" xmlns:xlink="http://www.w3.org/1999/xlink" width="1920" height="1080" viewBox="0 0 1920 1080">
  <defs>
    <filter id="Rectangle_5" x="170" y="107" width="1589" height="809" filterUnits="userSpaceOnUse">
      <feOffset dx="4" dy="4" input="SourceAlpha"/>
      <feGaussianBlur stdDeviation="3" result="blur"/>
      <feFlood flood-opacity="0.49"/>
      <feComposite operator="in" in2="blur"/>
      <feComposite in="SourceGraphic"/>
    </filter>
    <linearGradient id="linear-gradient" x1="1" y1="0.5" x2="0" y2="0.5" gradientUnits="objectBoundingBox">
      <stop offset="0" stop-color="#626463"/>
      <stop offset="0.5" stop-color="#9e9e9e" stop-opacity="0.933"/>
      <stop offset="1" stop-color="#ccc" stop-opacity="0.878"/>
    </linearGradient>
    <clipPath id="clip-zoning">
      <rect width="1920" height="1080"/>
    </clipPath>
  </defs>
  <g id="zoning" clip-path="url(#clip-zoning)">
    <rect width="1920" height="1080" fill="#fff"/>
    <g transform="matrix(1, 0, 0, 1, 0, 0)" filter="url(#Rectangle_5)">
      <g id="Rectangle_5-2" data-name="Rectangle 5" transform="translate(175 112)" fill="#fff" stroke="#707070" stroke-width="1">
        <rect width="1571" height="791" rx="33" stroke="none"/>
        <rect x="0.5" y="0.5" width="1570" height="790" rx="32.5" fill="none"/>
      </g>
    </g>
    <g id="left_panel" data-name="left panel">
      <g id="Email">
        <rect id="Rectangle_10" data-name="Rectangle 10" width="592" height="77" transform="translate(273 431)" fill="#eee"/>
      </g>
      <g id="password" transform="translate(-1 118)">
        <rect id="Rectangle_10-2" data-name="Rectangle 10" width="592" height="77" transform="translate(273 431)" fill="#eee"/>
      </g>
      <g id="button" transform="translate(-6)">
        <rect id="Rectangle_11" data-name="Rectangle 11" width="217" height="63" rx="20" transform="translate(466 758)" fill="#c2c2c2"/>
      </g>
      <rect id="Rectangle_14" data-name="Rectangle 14" width="305" height="64" rx="15" transform="translate(421 286)" fill="#d7d3d3"/>
    </g>
    <g id="right_panel" data-name="right panel">
      <g id="Group_8" data-name="Group 8">
        <rect id="Rectangle_9" data-name="Rectangle 9" width="37" height="48" transform="translate(960 855)" fill="#cacaca"/>
        <rect id="Rectangle_8" data-name="Rectangle 8" width="35" height="40" transform="translate(961 112)" fill="#c8c8c8"/>
        <rect id="Rectangle_7" data-name="Rectangle 7" width="786" height="791" rx="36" transform="translate(960 112)" fill="url(#linear-gradient)"/>
      </g>
      <rect id="Rectangle_12" data-name="Rectangle 12" width="445" height="64" rx="15" transform="translate(1137 431)" fill="#d7d3d3"/>
    </g>
    <g id="footer">
      <rect id="footer-2" data-name="footer" width="1920" height="124" transform="translate(0 956)" fill="#98949d"/>
    </g>
  </g>
</svg>
